<svg xmlns="http://www.w3.org/2000/svg" style="display:none">
  <symbol id="i-globe" viewBox="0 0 24 24">
    <path d="M12 22a10 10 0 1 0-10-10 10 10 0 0 0 10 10Z"/>
    <path d="M2 12h20"/>
    <path d="M12 2a15 15 0 0 1 0 20"/>
    <path d="M12 2a15 15 0 0 0 0 20"/>
  </symbol>

  <symbol id="i-palette" viewBox="0 0 24 24">
    <path d="M12 22a10 10 0 1 1 0-20c5.5 0 10 4 10 9 0 2-1.2 3-3 3h-2c-1.1 0-2 .9-2 2 0 1.7-1.3 3-3 3Z"/>
    <path d="M7.5 10.5h0"/>
    <path d="M10.5 7.5h0"/>
    <path d="M13.5 7.5h0"/>
    <path d="M16.5 10.5h0"/>
  </symbol>

  <symbol id="i-scale" viewBox="0 0 24 24">
    <path d="M12 3v18"/>
    <path d="M6 7h12"/>
    <path d="M6 7l-3 6h6l-3-6Z"/>
    <path d="M18 7l-3 6h6l-3-6Z"/>
    <path d="M8 21h8"/>
  </symbol>

  <symbol id="i-moon" viewBox="0 0 24 24">
    <path d="M21 12.6A8.5 8.5 0 1 1 11.4 3a6.8 6.8 0 0 0 9.6 9.6Z"/>
  </symbol>

  <symbol id="i-sun" viewBox="0 0 24 24">
    <path d="M12 18a6 6 0 1 0-6-6 6 6 0 0 0 6 6Z"/>
    <path d="M12 2v2"/>
    <path d="M12 20v2"/>
    <path d="M4.9 4.9l1.4 1.4"/>
    <path d="M17.7 17.7l1.4 1.4"/>
    <path d="M2 12h2"/>
    <path d="M20 12h2"/>
    <path d="M4.9 19.1l1.4-1.4"/>
    <path d="M17.7 6.3l1.4-1.4"/>
  </symbol>

  <symbol id="i-home" viewBox="0 0 24 24">
    <path d="M3 10.5 12 3l9 7.5"/>
    <path d="M5 10v11h14V10"/>
    <path d="M10 21v-7h4v7"/>
  </symbol>

  <symbol id="i-back" viewBox="0 0 24 24">
    <path d="M15 18l-6-6 6-6"/>
  </symbol>

  <symbol id="i-download" viewBox="0 0 24 24">
    <path d="M12 3v10"/>
    <path d="M8 11l4 4 4-4"/>
    <path d="M4 21h16"/>
  </symbol>
</svg>
